<svg width="453" height="354" viewBox="0 0 453 354" xmlns="http://www.w3.org/2000/svg" lang="en" xml:lang="en"><rect x="2" y="2" stroke-width="4" rx="6" width="449" height="350" stroke="rgba(56,139,253,0.4)" fill="#0d1117"/><g font-weight="600" font-size="110pt" font-family="Verdana,Geneva,DejaVu Sans,sans-serif" text-rendering="geometricPrecision"><text x="444" y="301" lengthAdjust="spacingAndGlyphs" textLength="2787" transform="scale(0.123)" fill="#58a6ff">Samuel Åkesson's GitHub Activity</text><svg x="15" y="15" width="25" height="25" viewBox="0 0 16 16"><path fill="#ffffff" fill-rule="evenodd" d="M8 0C3.58 0 0 3.58 0 8c0 3.54 2.29 6.53 5.47 7.59.4.07.55-.17.55-.38 0-.19-.01-.82-.01-1.49-2.01.37-2.53-.49-2.69-.94-.09-.23-.48-.94-.82-1.13-.28-.15-.68-.52-.01-.53.63-.01 1.08.58 1.23.82.72 1.21 1.87.87 2.33.66.07-.52.28-.87.51-1.07-1.78-.2-3.64-.89-3.64-3.95 0-.87.31-1.59.82-2.15-.08-.2-.36-1.02.08-2.12 0 0 .67-.21 2.2.82.64-.18 1.32-.27 2-.27.68 0 1.36.09 2 .27 1.53-1.04 2.2-.82 2.2-.82.44 1.1.16 1.92.08 2.12.51.56.82 1.27.82 2.15 0 3.07-1.87 3.75-3.65 3.95.29.25.54.73.54 1.48 0 1.07-.01 1.93-.01 2.2 0 .21.15.46.55.38A8.013 8.013 0 0016 8c0-4.42-3.58-8-8-8z"/></svg><svg x="413" y="15" width="25" height="25" viewBox="0 0 16 16"><path fill="#ffffff" fill-rule="evenodd" d="M8 0C3.58 0 0 3.58 0 8c0 3.54 2.29 6.53 5.47 7.59.4.07.55-.17.55-.38 0-.19-.01-.82-.01-1.49-2.01.37-2.53-.49-2.69-.94-.09-.23-.48-.94-.82-1.13-.28-.15-.68-.52-.01-.53.63-.01 1.08.58 1.23.82.72 1.21 1.87.87 2.33.66.07-.52.28-.87.51-1.07-1.78-.2-3.64-.89-3.64-3.95 0-.87.31-1.59.82-2.15-.08-.2-.36-1.02.08-2.12 0 0 .67-.21 2.2.82.64-.18 1.32-.27 2-.27.68 0 1.36.09 2 .27 1.53-1.04 2.2-.82 2.2-.82.44 1.1.16 1.92.08 2.12.51.56.82 1.27.82 2.15 0 3.07-1.87 3.75-3.65 3.95.29.25.54.73.54 1.48 0 1.07-.01 1.93-.01 2.2 0 .21.15.46.55.38A8.013 8.013 0 0016 8c0-4.42-3.58-8-8-8z"/></svg><g transform="translate(0, 60)" fill="#c9d1d9"><g transform="translate(15, 0)"><g transform="scale(0.095)"><text x="0" y="132" textLength="3652" lengthAdjust="spacingAndGlyphs">Language Distribution in Public Repositories</text></g></g><g transform="translate(241, 21)"><circle cx="92" cy="92" r="92" fill="#ffffff"/></g><g transform="translate(242, 22)"><path fill-rule="evenodd" fill="#f34b7d" d="M 0.0,91.00000000000001 A 91 91 0 0 1 146.95069631857353 19.232879523651192 L 91,91 Z"/><path fill-rule="evenodd" fill="#239dad" d="M 146.95069631857353,19.232879523651192 A 91 91 0 0 1 177.8032900901026 118.31645711898777 L 91,91 Z"/><path fill-rule="evenodd" fill="#e34c26" d="M 177.8032900901026,118.31645711898777 A 91 91 0 0 1 127.13787163074286 174.5167901322839 L 91,91 Z"/><path fill-rule="evenodd" fill="#adb2cb" d="M 127.13787163074286,174.5167901322839 A 91 91 0 0 1 79.8220084400393 181.31086592811215 L 91,91 Z"/><path fill-rule="evenodd" fill="#3572A5" d="M 79.8220084400393,181.31086592811215 A 91 91 0 0 1 38.304215871073936 165.1899881051185 L 91,91 Z"/><path fill-rule="evenodd" fill="#dea584" d="M 38.304215871073936,165.1899881051185 A 91 91 0 0 1 25.064884298016096 153.71810358553577 L 91,91 Z"/><path fill-rule="evenodd" fill="#555555" d="M 25.064884298016096,153.71810358553577 A 91 91 0 0 1 16.737796196945084 143.5939643525142 L 91,91 Z"/><path fill-rule="evenodd" fill="#663399" d="M 16.737796196945084,143.5939643525142 A 91 91 0 0 1 11.72001542328367 135.67307965112343 L 91,91 Z"/><path fill-rule="evenodd" fill="#6E4C13" d="M 11.72001542328367,135.67307965112343 A 91 91 0 0 1 8.237933783465138 128.8343811310546 L 91,91 Z"/><path fill-rule="evenodd" fill="#00ADD8" d="M 8.237933783465138,128.8343811310546 A 91 91 0 0 1 5.46040611657574 122.04799314382245 L 91,91 Z"/><path fill-rule="evenodd" fill="#427819" d="M 5.46040611657574,122.04799314382245 A 91 91 0 0 1 3.2394501705591807 115.06420357365343 L 91,91 Z"/><path fill-rule="evenodd" fill="#f1e05a" d="M 3.2394501705591807,115.06420357365343 A 91 91 0 0 1 1.7400629833119439 108.71055176376166 L 91,91 Z"/><path fill-rule="evenodd" fill="#3D6117" d="M 1.7400629833119439,108.71055176376166 A 91 91 0 0 1 0.7006089378203484 102.27031382879595 L 91,91 Z"/><path fill-rule="evenodd" fill="#959da5" d="M 0.7006089378203484,102.27031382879595 A 91 91 0 0 1 0.0 91.00000000000003 L 91,91 Z"/></g><g transform="translate(15, 21)"><rect x="0.5" y="0.5" rx="2" width="15" height="15" fill="#f34b7d" stroke-width="1" stroke="#ffffff"/><text transform="scale(0.095)" x="263" y="132" textLength="1074" lengthAdjust="spacingAndGlyphs">C++ 35.54%</text></g><g transform="translate(15, 42)"><rect x="0.5" y="0.5" rx="2" width="15" height="15" fill="#239dad" stroke-width="1" stroke="#ffffff"/><text transform="scale(0.095)" x="263" y="132" textLength="1137" lengthAdjust="spacingAndGlyphs">Typst 19.31%</text></g><g transform="translate(15, 63)"><rect x="0.5" y="0.5" rx="2" width="15" height="15" fill="#e34c26" stroke-width="1" stroke="#ffffff"/><text transform="scale(0.095)" x="263" y="132" textLength="1142" lengthAdjust="spacingAndGlyphs">HTML 13.65%</text></g><g transform="translate(15, 84)"><rect x="0.5" y="0.5" rx="2" width="15" height="15" fill="#adb2cb" stroke-width="1" stroke="#ffffff"/><text transform="scale(0.095)" x="263" y="132" textLength="1034" lengthAdjust="spacingAndGlyphs">VHDL 8.46%</text></g><g transform="translate(15, 105)"><rect x="0.5" y="0.5" rx="2" width="15" height="15" fill="#3572A5" stroke-width="1" stroke="#ffffff"/><text transform="scale(0.095)" x="263" y="132" textLength="1149" lengthAdjust="spacingAndGlyphs">Python 7.87%</text></g><g transform="translate(15, 126)"><rect x="0.5" y="0.5" rx="2" width="15" height="15" fill="#dea584" stroke-width="1" stroke="#ffffff"/><text transform="scale(0.095)" x="263" y="132" textLength="946" lengthAdjust="spacingAndGlyphs">Rust 3.07%</text></g><g transform="translate(15, 147)"><rect x="0.5" y="0.5" rx="2" width="15" height="15" fill="#555555" stroke-width="1" stroke="#ffffff"/><text transform="scale(0.095)" x="263" y="132" textLength="693" lengthAdjust="spacingAndGlyphs">C 2.29%</text></g><g transform="translate(15, 168)"><rect x="0.5" y="0.5" rx="2" width="15" height="15" fill="#663399" stroke-width="1" stroke="#ffffff"/><text transform="scale(0.095)" x="263" y="132" textLength="903" lengthAdjust="spacingAndGlyphs">CSS 1.64%</text></g><g transform="translate(15, 189)"><rect x="0.5" y="0.5" rx="2" width="15" height="15" fill="#6E4C13" stroke-width="1" stroke="#ffffff"/><text transform="scale(0.095)" x="263" y="132" textLength="1372" lengthAdjust="spacingAndGlyphs">Assembly 1.34%</text></g><g transform="translate(15, 210)"><rect x="0.5" y="0.5" rx="2" width="15" height="15" fill="#00ADD8" stroke-width="1" stroke="#ffffff"/><text transform="scale(0.095)" x="263" y="132" textLength="806" lengthAdjust="spacingAndGlyphs">Go 1.28%</text><rect x="226.5" y="0.5" rx="2" width="15" height="15" fill="#427819" stroke-width="1" stroke="#ffffff"/><text transform="scale(0.095)" x="2642" y="132" textLength="1272" lengthAdjust="spacingAndGlyphs">Makefile 1.28%</text></g><g transform="translate(15, 231)"><rect x="0.5" y="0.5" rx="2" width="15" height="15" fill="#f1e05a" stroke-width="1" stroke="#ffffff"/><text transform="scale(0.095)" x="263" y="132" textLength="1412" lengthAdjust="spacingAndGlyphs">JavaScript 1.14%</text><rect x="226.5" y="0.5" rx="2" width="15" height="15" fill="#3D6117" stroke-width="1" stroke="#ffffff"/><text transform="scale(0.095)" x="2642" y="132" textLength="894" lengthAdjust="spacingAndGlyphs">TeX 1.14%</text></g><g transform="translate(15, 252)"><rect x="0.5" y="0.5" rx="2" width="15" height="15" fill="#959da5" stroke-width="1" stroke="#ffffff"/><text transform="scale(0.095)" x="263" y="132" textLength="1047" lengthAdjust="spacingAndGlyphs">Other 1.98%</text></g></g></g></svg>