<svg class="typst-doc" viewBox="0 0 177.18631461227722 150.78450508666168" width="177.18631461227722pt" height="150.78450508666168pt" xmlns="http://www.w3.org/2000/svg" xmlns:xlink="http://www.w3.org/1999/xlink" xmlns:h5="http://www.w3.org/1999/xhtml">
    <path class="typst-shape" fill="#1b2a36" fill-rule="nonzero" d="M 0 0v 150.7845 h 177.18631 v -150.7845 Z "/>
    <g>
        <g class="typst-group" transform="matrix(1 0 0 1 11 11)">
            <g/>
        </g>
        <g class="typst-group">
            <g>
                <g class="typst-group">
                    <g>
                        <g class="typst-group" transform="matrix(1 0 0 1 11 26.400000000000002)">
                            <g>
                                <path class="typst-shape" fill="#239dad" fill-rule="nonzero" d="M 0 0v 8.8 h 8.8 v -8.8 Z "/>
                            </g>
                        </g>
                        <g class="typst-group">
                            <g>
                                <g class="typst-group" transform="matrix(1 0 0 1 11 46.2)">
                                    <g>
                                        <path class="typst-shape" fill="#e34c26" fill-rule="nonzero" d="M 0 0v 8.8 h 8.8 v -8.8 Z "/>
                                    </g>
                                </g>
                            </g>
                        </g>
                        <g class="typst-group">
                            <g>
                                <g class="typst-group" transform="matrix(1 0 0 1 11 66)">
                                    <g>
                                        <path class="typst-shape" fill="#adb2cb" fill-rule="nonzero" d="M 0 0v 8.8 h 8.8 v -8.8 Z "/>
                                    </g>
                                </g>
                            </g>
                        </g>
                        <g class="typst-group">
                            <g>
                                <g class="typst-group" transform="matrix(1 0 0 1 11 85.80000000000001)">
                                    <g>
                                        <path class="typst-shape" fill="#3572a5" fill-rule="nonzero" d="M 0 0v 8.8 h 8.8 v -8.8 Z "/>
                                    </g>
                                </g>
                            </g>
                        </g>
                        <g class="typst-group">
                            <g>
                                <g class="typst-group" transform="matrix(1 0 0 1 11 105.60000000000001)">
                                    <g>
                                        <path class="typst-shape" fill="#dea584" fill-rule="nonzero" d="M 0 0v 8.8 h 8.8 v -8.8 Z "/>
                                    </g>
                                </g>
                            </g>
                        </g>
                        <g class="typst-group">
                            <g>
                                <g class="typst-group" transform="matrix(1 0 0 1 11 125.40000000000002)">
                                    <g>
                                        <path class="typst-shape" fill="#444444" fill-rule="nonzero" d="M 0 0v 8.8 h 8.8 v -8.8 Z "/>
                                    </g>
                                </g>
                            </g>
                        </g>
                    </g>
                </g>
                <g class="typst-group" transform="matrix(1 0 0 1 52.800000000000004 26.400000000000002)">
                    <g>
                        <path class="typst-shape" fill="#444444" fill-rule="nonzero" transform="matrix(1 0 0 1 10.15668608779192 0)" d="M 0 0m 46.04158 0 c -18.380821 0.16040699 -35.543056 9.222403 -46.04158 24.310852 h -0.000000028254261 l 46.085613 31.526337 l -0.04403305 -55.83719 v -0.000000109747766 Z "/>
                        <path class="typst-shape" fill="#dea584" fill-rule="nonzero" transform="matrix(1 0 0 1 0.20767999450246952 25.12795516827144)" d="M 0 0m 9.390986 0.000000044326985 c -5.339812 7.9674454 -8.570937 17.159395 -9.390986 26.715614 h 0.000000022416765 l 54.836082 4.2674503 l -45.445095 -30.983065 v 0.000000044326985 Z "/>
                        <path class="typst-shape" fill="#3572a5" fill-rule="nonzero" transform="matrix(1 0 0 1 0 52.83011166205129)" d="M 0 0m 0.13168788 0.000000022988088 c -0.96702975 14.167709 3.4181466 28.182438 12.288168 39.272156 l 43.1133 -35.0486 l -55.40147 -4.223555 l -0.000000059604645 0.000000022988088 Z "/>
                        <path class="typst-shape" fill="#adb2cb" fill-rule="nonzero" transform="matrix(1 0 0 1 13.044615162628915 57.69780267144069)" d="M 0 0m 0.000000030269565 35.171745 c 9.775901 11.794266 23.908678 19.130367 39.18006 20.337757 l 3.9455795 -55.509502 l -43.12564 35.171745 h 0.000000030269565 Z "/>
                        <path class="typst-shape" fill="#e34c26" fill-rule="nonzero" transform="matrix(1 0 0 1 53.2117064655399 57.305696383480466)" d="M 0 0m 0.0000000029491307 55.970985 c 25.323849 1.5579796 48.599514 -13.899193 56.98685 -37.84449 l -53.09718 -18.126497 l -3.8896697 55.970985 h 0.0000000029491307 Z "/>
                        <path class="typst-shape" fill="#239dad" fill-rule="nonzero" transform="matrix(1 0 0 1 57.1432800494805 0.0000001097477699270114)" d="M 0 0m 53.37421 74.49554 c 5.6886597 -17.197014 2.8174515 -36.07703 -7.726326 -50.805473 c -10.543777 -14.728441 -27.490643 -23.531998 -45.60343 -23.690065 l 0.000000014901161 -0.000000050294325 l -0.044451267 56.36841 l 53.37421 18.127129 Z "/>
                    </g>
                </g>
            </g>
        </g>
    </g>
</svg>
