<svg width="453" height="333" viewBox="0 0 453 333" xmlns="http://www.w3.org/2000/svg" lang="en" xml:lang="en"><rect x="2" y="2" stroke-width="4" rx="6" width="449" height="329" stroke="rgba(56,139,253,0.4)" fill="#0d1117"/><g font-weight="600" font-size="110pt" font-family="Verdana,Geneva,DejaVu Sans,sans-serif" text-rendering="geometricPrecision"><text x="444" y="301" lengthAdjust="spacingAndGlyphs" textLength="2787" transform="scale(0.123)" fill="#58a6ff">Samuel Åkesson's GitHub Activity</text><svg x="15" y="15" width="25" height="25" viewBox="0 0 16 16"><path fill="#ffffff" fill-rule="evenodd" d="M8 0C3.58 0 0 3.58 0 8c0 3.54 2.29 6.53 5.47 7.59.4.07.55-.17.55-.38 0-.19-.01-.82-.01-1.49-2.01.37-2.53-.49-2.69-.94-.09-.23-.48-.94-.82-1.13-.28-.15-.68-.52-.01-.53.63-.01 1.08.58 1.23.82.72 1.21 1.87.87 2.33.66.07-.52.28-.87.51-1.07-1.78-.2-3.64-.89-3.64-3.95 0-.87.31-1.59.82-2.15-.08-.2-.36-1.02.08-2.12 0 0 .67-.21 2.2.82.64-.18 1.32-.27 2-.27.68 0 1.36.09 2 .27 1.53-1.04 2.2-.82 2.2-.82.44 1.1.16 1.92.08 2.12.51.56.82 1.27.82 2.15 0 3.07-1.87 3.75-3.65 3.95.29.25.54.73.54 1.48 0 1.07-.01 1.93-.01 2.2 0 .21.15.46.55.38A8.013 8.013 0 0016 8c0-4.42-3.58-8-8-8z"/></svg><svg x="413" y="15" width="25" height="25" viewBox="0 0 16 16"><path fill="#ffffff" fill-rule="evenodd" d="M8 0C3.58 0 0 3.58 0 8c0 3.54 2.29 6.53 5.47 7.59.4.07.55-.17.55-.38 0-.19-.01-.82-.01-1.49-2.01.37-2.53-.49-2.69-.94-.09-.23-.48-.94-.82-1.13-.28-.15-.68-.52-.01-.53.63-.01 1.08.58 1.23.82.72 1.21 1.87.87 2.33.66.07-.52.28-.87.51-1.07-1.78-.2-3.64-.89-3.64-3.95 0-.87.31-1.59.82-2.15-.08-.2-.36-1.02.08-2.12 0 0 .67-.21 2.2.82.64-.18 1.32-.27 2-.27.68 0 1.36.09 2 .27 1.53-1.04 2.2-.82 2.2-.82.44 1.1.16 1.92.08 2.12.51.56.82 1.27.82 2.15 0 3.07-1.87 3.75-3.65 3.95.29.25.54.73.54 1.48 0 1.07-.01 1.93-.01 2.2 0 .21.15.46.55.38A8.013 8.013 0 0016 8c0-4.42-3.58-8-8-8z"/></svg><g transform="translate(0, 60)" fill="#c9d1d9"><g transform="translate(15, 0)"><g transform="scale(0.095)"><text x="0" y="132" textLength="3652" lengthAdjust="spacingAndGlyphs">Language Distribution in Public Repositories</text></g></g><g transform="translate(241, 21)"><circle cx="92" cy="92" r="92" fill="#ffffff"/></g><g transform="translate(242, 22)"><path fill-rule="evenodd" fill="#239dad" d="M 0.0,91.00000000000001 A 91 91 0 0 1 120.63341005439845 4.960119662171337 L 91,91 Z"/><path fill-rule="evenodd" fill="#e34c26" d="M 120.63341005439845,4.960119662171337 A 91 91 0 0 1 181.70364504416438 98.33817250425693 L 91,91 Z"/><path fill-rule="evenodd" fill="#adb2cb" d="M 181.70364504416438,98.33817250425693 A 91 91 0 0 1 147.39724457641702 162.41674036378166 L 91,91 Z"/><path fill-rule="evenodd" fill="#3572A5" d="M 147.39724457641702,162.41674036378166 A 91 91 0 0 1 82.28562920828082 181.58178482291254 L 91,91 Z"/><path fill-rule="evenodd" fill="#dea584" d="M 82.28562920828082,181.58178482291254 A 91 91 0 0 1 40.0060653424349 166.36987878549348 L 91,91 Z"/><path fill-rule="evenodd" fill="#663399" d="M 40.0060653424349,166.36987878549348 A 91 91 0 0 1 26.408640804505694 155.10114131026555 L 91,91 Z"/><path fill-rule="evenodd" fill="#000080" d="M 26.408640804505694,155.10114131026555 A 91 91 0 0 1 17.665386945726866 144.87981559155554 L 91,91 Z"/><path fill-rule="evenodd" fill="#6E4C13" d="M 17.665386945726866,144.87981559155554 A 91 91 0 0 1 11.281920982732217 134.8865341283252 L 91,91 Z"/><path fill-rule="evenodd" fill="#00ADD8" d="M 11.281920982732217,134.8865341283252 A 91 91 0 0 1 6.445910752997861 124.6393518310029 L 91,91 Z"/><path fill-rule="evenodd" fill="#f1e05a" d="M 6.445910752997861,124.6393518310029 A 91 91 0 0 1 3.2419126007374786 115.07318209176763 L 91,91 Z"/><path fill-rule="evenodd" fill="#3D6117" d="M 3.2419126007374786,115.07318209176763 A 91 91 0 0 1 1.1176100893543293 105.21815684083772 L 91,91 Z"/><path fill-rule="evenodd" fill="#e4cc98" d="M 1.1176100893543293,105.21815684083772 A 91 91 0 0 1 0.3724418508377738 99.22470084077351 L 91,91 Z"/><path fill-rule="evenodd" fill="#959da5" d="M 0.3724418508377738,99.22470084077351 A 91 91 0 0 1 0.0 91.00000000000003 L 91,91 Z"/></g><g transform="translate(15, 21)"><rect x="0.5" y="0.5" rx="2" width="15" height="15" fill="#239dad" stroke-width="1" stroke="#ffffff"/><text transform="scale(0.095)" x="263" y="132" textLength="1137" lengthAdjust="spacingAndGlyphs">Typst 30.28%</text></g><g transform="translate(15, 42)"><rect x="0.5" y="0.5" rx="2" width="15" height="15" fill="#e34c26" stroke-width="1" stroke="#ffffff"/><text transform="scale(0.095)" x="263" y="132" textLength="1142" lengthAdjust="spacingAndGlyphs">HTML 21.01%</text></g><g transform="translate(15, 63)"><rect x="0.5" y="0.5" rx="2" width="15" height="15" fill="#adb2cb" stroke-width="1" stroke="#ffffff"/><text transform="scale(0.095)" x="263" y="132" textLength="1138" lengthAdjust="spacingAndGlyphs">VHDL 13.08%</text></g><g transform="translate(15, 84)"><rect x="0.5" y="0.5" rx="2" width="15" height="15" fill="#3572A5" stroke-width="1" stroke="#ffffff"/><text transform="scale(0.095)" x="263" y="132" textLength="1254" lengthAdjust="spacingAndGlyphs">Python 12.16%</text></g><g transform="translate(15, 105)"><rect x="0.5" y="0.5" rx="2" width="15" height="15" fill="#dea584" stroke-width="1" stroke="#ffffff"/><text transform="scale(0.095)" x="263" y="132" textLength="946" lengthAdjust="spacingAndGlyphs">Rust 7.94%</text></g><g transform="translate(15, 126)"><rect x="0.5" y="0.5" rx="2" width="15" height="15" fill="#663399" stroke-width="1" stroke="#ffffff"/><text transform="scale(0.095)" x="263" y="132" textLength="903" lengthAdjust="spacingAndGlyphs">CSS 3.09%</text></g><g transform="translate(15, 147)"><rect x="0.5" y="0.5" rx="2" width="15" height="15" fill="#000080" stroke-width="1" stroke="#ffffff"/><text transform="scale(0.095)" x="263" y="132" textLength="874" lengthAdjust="spacingAndGlyphs">Lua 2.35%</text></g><g transform="translate(15, 168)"><rect x="0.5" y="0.5" rx="2" width="15" height="15" fill="#6E4C13" stroke-width="1" stroke="#ffffff"/><text transform="scale(0.095)" x="263" y="132" textLength="1372" lengthAdjust="spacingAndGlyphs">Assembly 2.08%</text></g><g transform="translate(15, 189)"><rect x="0.5" y="0.5" rx="2" width="15" height="15" fill="#00ADD8" stroke-width="1" stroke="#ffffff"/><text transform="scale(0.095)" x="263" y="132" textLength="806" lengthAdjust="spacingAndGlyphs">Go 1.98%</text></g><g transform="translate(15, 210)"><rect x="0.5" y="0.5" rx="2" width="15" height="15" fill="#f1e05a" stroke-width="1" stroke="#ffffff"/><text transform="scale(0.095)" x="263" y="132" textLength="1412" lengthAdjust="spacingAndGlyphs">JavaScript 1.77%</text><rect x="226.5" y="0.5" rx="2" width="15" height="15" fill="#3D6117" stroke-width="1" stroke="#ffffff"/><text transform="scale(0.095)" x="2642" y="132" textLength="894" lengthAdjust="spacingAndGlyphs">TeX 1.76%</text></g><g transform="translate(15, 231)"><rect x="0.5" y="0.5" rx="2" width="15" height="15" fill="#e4cc98" stroke-width="1" stroke="#ffffff"/><text transform="scale(0.095)" x="263" y="132" textLength="816" lengthAdjust="spacingAndGlyphs">Tcl 1.06%</text><rect x="226.5" y="0.5" rx="2" width="15" height="15" fill="#959da5" stroke-width="1" stroke="#ffffff"/><text transform="scale(0.095)" x="2642" y="132" textLength="1047" lengthAdjust="spacingAndGlyphs">Other 1.44%</text></g></g></g></svg>